# xmcd CD database file
#
# Track frame offsets:
#	150
#	13020
#	24680
#	35777
#	47059
#	59047
#	69571
#	80827
#	92179
#	102479
#	112124
#	123518
#	135134
#	146635
#	157775
#	169609
#	180516
#	193885
#	204897
#	215909
#	226871
#	237367
#	248364
#	258791
#
# Disc length: 3601 seconds
#
# Revision: 3
# Processed by: cddbd v1.5.2PL0 Copyright (c) Steve Scherf et al.
# Submitted via: CDex 1.51
#
DISCID=550e0f18
DTITLE=Lula Reed - I'll drown in my tears
DYEAR=2003
DGENRE=Blues
TTITLE0=I'll Drown in My Tears (w Sonny Thompson and His Orchestra)
TTITLE1=Let's Call It a Day (w Sonny Thompson and His Orchestra)
TTITLE2=Last Night (w Sonny Thompson and His Orchestra)
TTITLE3=Going Back to Mexico
TTITLE4=My Story
TTITLE5=Waiting to Be Loved by You (w Sonny Thompson and His Orchestra)
TTITLE6=I'll Upset You Baby
TTITLE7=Just Whisper
TTITLE8=A Quiet Time with Jesus
TTITLE9=Rock Love
TTITLE10=Let Me Be Your Love
TTITLE11=Troubles on Your Mind
TTITLE12=I'm Gone, Yes I'm Gone
TTITLE13=Sick and Tired
TTITLE14=Your Key Don't Fit No More
TTITLE15=Wonderful Love
TTITLE16=Watch Dog
TTITLE17=Living in Misery
TTITLE18=Don't Make Me Love You
TTITLE19=Bump on a Log
TTITLE20=Without Love (Ain't It a Shame)
TTITLE21=Why Don't You Come on Home
TTITLE22=I'm Giving All My Love
TTITLE23=Jealous Love
EXTD=YEAR: 2003
EXTT0=
EXTT1=
EXTT2=
EXTT3=
EXTT4=
EXTT5=
EXTT6=
EXTT7=
EXTT8=
EXTT9=
EXTT10=
EXTT11=
EXTT12=
EXTT13=
EXTT14=
EXTT15=
EXTT16=
EXTT17=
EXTT18=
EXTT19=
EXTT20=
EXTT21=
EXTT22=
EXTT23=
PLAYORDER=
